<svg width="352" height="265" viewBox="0 0 352 265" fill="none" xmlns="http://www.w3.org/2000/svg">
<path d="M158.575 156.972C198.759 170.032 187.039 201.761 176.155 215.994C225.382 199.919 230.154 155.716 226.386 135.624C220.359 104.48 175.318 79.1141 153.551 70.3232C104.325 51.2358 83.6465 15.4879 79.461 0C60.373 46.2123 116.715 86.2297 147.272 100.462C132.203 104.48 98.2976 80.3695 83.2278 67.8118C81.2187 102.974 132.622 127.67 158.575 135.624C138.482 137.633 118.39 127.252 110.855 121.81C112.864 139.894 143.505 152.786 158.575 156.972Z" fill="#172D44"/>
<path d="M164.855 64.0448C260.294 104.23 242.295 167.019 221.365 193.39C275.615 158.228 263.224 110.928 250.248 91.6723C229.151 67.5614 235.597 44.7901 241.457 36.4179C260.545 16.3256 272.852 23.0229 276.619 28.8836C280.637 0.753936 252.34 3.76783 237.69 8.79092C228.648 -2.25989 205.458 5.86076 194.993 11.3025C178.92 20.3442 160.669 17.5814 153.553 15.0698C153.553 31.1436 171.971 33.4878 181.18 32.6505C164.101 52.7431 163.18 61.952 164.855 64.0448Z" fill="#172D44"/>
<path d="M213.736 18.271C217.085 16.5966 224.536 13.7502 227.55 15.7594C226.713 19.1082 222.778 24.2988 213.736 18.271Z" fill="#F3F4EE"/>
<path d="M0.106429 262.027C0.106429 262.01 0.115533 261.974 0.133177 261.921C0.15139 261.851 0.213432 261.816 0.320432 261.816C0.426863 261.816 0.595899 261.798 0.826973 261.763C1.05805 261.728 1.29822 261.692 1.54751 261.657C1.79623 261.621 2.02787 261.586 2.24073 261.551C2.45473 261.498 2.60555 261.463 2.69434 261.445C3.70856 261.216 4.41089 260.845 4.80189 260.334C5.21111 259.804 5.41601 259.152 5.41601 258.376V231.494C5.41601 230.612 5.22876 229.915 4.8554 229.403C4.48204 228.892 4.04606 228.513 3.54806 228.265C3.06827 228.001 2.59702 227.842 2.1343 227.79C1.6898 227.719 1.38702 227.684 1.22709 227.684H0.21343C0.124643 227.684 0.0620354 227.657 0.0267483 227.605C0.00910469 227.551 0 227.507 0 227.472V226.308C0 226.272 0.00910469 226.237 0.0267483 226.202C0.0443918 226.149 0.106431 226.114 0.21343 226.096C0.231074 226.096 0.266932 226.096 0.320432 226.096C0.391006 226.096 0.524758 226.096 0.720544 226.096C0.915762 226.078 1.20034 226.07 1.57427 226.07C1.94763 226.052 2.47238 226.034 3.14796 226.017C4.12632 225.999 5.16672 225.973 6.26973 225.937C7.38981 225.902 8.51956 225.867 9.65786 225.832C10.7962 225.796 11.9162 225.77 13.0192 225.752C14.1399 225.717 15.1888 225.699 16.1672 225.699H18.8621C20.2668 225.699 21.6987 225.937 23.1569 226.413C24.6156 226.89 25.9321 227.595 27.1056 228.53C28.2974 229.447 29.2667 230.594 30.0134 231.97C30.7784 233.346 31.1608 234.933 31.1608 236.732C31.1608 237.897 31.0009 238.938 30.6805 239.855C30.3606 240.754 29.9161 241.557 29.3469 242.262C28.7954 242.95 28.1284 243.559 27.3458 244.088C26.5809 244.617 25.7448 245.085 24.8382 245.49L32.9218 258.191C33.6155 259.285 34.4243 260.281 35.3492 261.181C36.274 262.062 37.3503 262.68 38.5774 263.033C38.7197 263.068 38.7999 263.121 38.8176 263.191C38.8534 263.244 38.8711 263.315 38.8711 263.403C38.8711 263.668 38.7999 263.844 38.6576 263.932C38.5153 264.02 38.2928 264.064 37.9906 264.064C37.2433 264.064 36.3896 264.012 35.4294 263.906C34.4869 263.818 33.5353 263.659 32.5746 263.429C31.6144 263.218 30.6981 262.936 29.8267 262.583C28.973 262.23 28.253 261.789 27.6657 261.26C27.0965 260.766 26.5188 260.14 25.9321 259.381C25.3447 258.623 24.7488 257.811 24.1444 256.947C23.5576 256.065 22.9702 255.157 22.3834 254.222C21.8143 253.269 21.2542 252.344 20.7027 251.444C20.1689 250.544 19.6532 249.706 19.1552 248.93C18.6572 248.154 18.2036 247.493 17.795 246.946L13.6328 246.655C13.6151 246.655 13.544 246.655 13.4194 246.655C13.2947 246.655 13.2059 246.672 13.1524 246.707C13.0995 246.743 13.0636 246.778 13.046 246.814C13.0284 246.849 13.0192 246.919 13.0192 247.025V258.297C13.0192 258.773 13.0813 259.188 13.2059 259.54C13.3306 259.893 13.5349 260.202 13.8195 260.466C14.1223 260.713 14.5041 260.916 14.9669 261.075C15.4472 261.234 16.0249 261.357 16.7011 261.445C16.8075 261.463 16.9589 261.489 17.1547 261.524C17.3681 261.56 17.5901 261.604 17.8217 261.657C18.0704 261.692 18.3106 261.728 18.5417 261.763C18.7728 261.798 18.9685 261.816 19.1285 261.816C19.2355 261.816 19.2975 261.842 19.3152 261.895C19.3334 261.948 19.3419 261.992 19.3419 262.027V263.191C19.3419 263.227 19.3243 263.271 19.289 263.324C19.2708 263.377 19.2178 263.403 19.1285 263.403H0.320432C0.231076 263.403 0.169033 263.28 0.133177 263.033C0.115533 262.786 0.106429 262.556 0.106429 262.345V262.027ZM13.0727 244.009C13.0904 244.15 13.1262 244.282 13.1792 244.406C13.2503 244.512 13.3841 244.573 13.5793 244.591C13.7398 244.609 13.98 244.644 14.2998 244.697C14.6197 244.732 15.0648 244.75 15.6339 244.75C17.1991 244.75 18.4882 244.512 19.5024 244.035C20.516 243.559 21.3163 242.924 21.9031 242.13C22.4904 241.319 22.8905 240.393 23.104 239.352C23.335 238.311 23.4506 237.226 23.4506 236.097C23.4506 234.916 23.2639 233.795 22.8905 232.737C22.5172 231.679 21.9924 230.762 21.3163 229.985C20.6583 229.209 19.8581 228.592 18.915 228.133C17.9902 227.675 16.968 227.445 15.8473 227.445C15.598 227.445 15.4028 227.454 15.2605 227.472C15.1183 227.472 14.976 227.481 14.8337 227.498C14.709 227.498 14.5577 227.507 14.3801 227.525C14.2196 227.525 13.9885 227.534 13.6863 227.551C13.5793 227.551 13.437 227.578 13.2594 227.63C13.0995 227.666 13.0192 227.781 13.0192 227.975V243.215L13.0727 244.009ZM39.3514 262.159C39.3514 262.018 39.4226 261.948 39.5648 261.948C39.9023 261.93 40.2939 261.886 40.7384 261.816C41.2011 261.728 41.6633 261.56 42.126 261.313C42.6058 261.049 43.0685 260.669 43.513 260.175C43.9575 259.663 44.3315 258.967 44.6337 258.085L55.3587 227.234C55.3587 227.252 55.3587 227.243 55.3587 227.207C55.3763 227.172 55.3854 227.137 55.3854 227.102C55.3854 226.978 55.3319 226.828 55.2249 226.652C55.1362 226.458 55.0918 226.316 55.0918 226.228C55.0918 226.14 55.127 226.096 55.1982 226.096H62.9352C62.971 226.114 63.0154 226.131 63.0689 226.149C63.1395 226.167 63.193 226.219 63.2289 226.308L74.5139 257.714C74.6915 258.208 74.8605 258.632 75.021 258.984C75.1809 259.337 75.3676 259.655 75.5811 259.937C75.8121 260.202 76.0967 260.449 76.4348 260.678C76.7729 260.889 77.2082 261.11 77.7421 261.339C77.9908 261.463 78.3289 261.595 78.7558 261.736C79.1826 261.877 79.5918 261.948 79.9828 261.948C80.0716 261.948 80.1251 261.974 80.1433 262.027C80.1786 262.08 80.1963 262.133 80.1963 262.186V263.191C80.1963 263.227 80.1786 263.271 80.1433 263.324C80.1251 263.377 80.0716 263.403 79.9828 263.403H61.2545C61.1657 263.403 61.1031 263.377 61.0678 263.324C61.0502 263.271 61.0411 263.227 61.0411 263.191V262.159C61.0411 262.124 61.0502 262.08 61.0678 262.027C61.1031 261.974 61.1657 261.948 61.2545 261.948C61.3256 261.948 61.3968 261.948 61.4679 261.948C61.5391 261.93 61.5926 261.921 61.6278 261.921C61.8236 261.904 62.0991 261.886 62.4548 261.869C62.8287 261.851 63.2289 261.825 63.6557 261.789C64.0826 261.736 64.5094 261.666 64.9363 261.577C65.3808 261.472 65.7809 261.331 66.1366 261.154C66.4923 260.96 66.786 260.713 67.0171 260.414C67.2482 260.113 67.3637 259.743 67.3637 259.302C67.3637 259.196 67.3461 259.073 67.3108 258.932L63.8156 249.38C63.798 249.345 63.7622 249.266 63.7087 249.142C63.6734 249.018 63.6022 248.895 63.4958 248.772C63.4064 248.631 63.2818 248.507 63.1219 248.401C62.9796 248.295 62.802 248.242 62.5886 248.242H52.9575C52.7264 248.242 52.5306 248.295 52.3707 248.401C52.2102 248.507 52.077 248.621 51.9705 248.745C51.8635 248.868 51.7748 248.992 51.7036 249.115C51.6501 249.239 51.6234 249.31 51.6234 249.327C51.0542 250.985 50.5739 252.388 50.1829 253.534C49.7913 254.663 49.4623 255.598 49.1954 256.339C48.9467 257.079 48.7509 257.653 48.6086 258.059C48.4663 258.464 48.3599 258.764 48.2887 258.958C48.2352 259.134 48.1994 259.249 48.1817 259.302C48.1817 259.337 48.1817 259.355 48.1817 259.355C48.1817 259.408 48.1908 259.47 48.2085 259.54C48.2261 259.593 48.2443 259.646 48.262 259.699C48.4043 260.14 48.6621 260.51 49.0355 260.81C49.427 261.093 49.8715 261.322 50.3695 261.498C50.8675 261.657 51.3747 261.772 51.8903 261.842C52.4236 261.913 52.8949 261.948 53.3041 261.948H53.9979C54.0866 261.948 54.1401 261.974 54.1578 262.027C54.1936 262.08 54.2113 262.124 54.2113 262.159V263.191C54.2113 263.227 54.1936 263.271 54.1578 263.324C54.1401 263.377 54.0866 263.403 53.9979 263.403H39.5648C39.4226 263.403 39.3514 263.332 39.3514 263.191V262.159ZM53.3308 244.432C53.2955 244.52 53.2688 244.609 53.2511 244.697C53.2329 244.785 53.2244 244.873 53.2244 244.962C53.2244 245.067 53.2511 245.155 53.3041 245.226C53.3576 245.279 53.464 245.305 53.6245 245.305H61.6278C61.8236 245.305 61.9483 245.27 62.0012 245.199C62.0729 245.111 62.1082 245.014 62.1082 244.908C62.1082 244.82 62.0991 244.741 62.0815 244.67C62.0638 244.6 62.0371 244.52 62.0012 244.432L58.4531 234.775C58.3644 234.528 58.2312 234.351 58.053 234.245C57.8749 234.122 57.715 234.06 57.5727 234.06C57.4304 234.06 57.2704 234.131 57.0929 234.272C56.9147 234.395 56.7816 234.572 56.6922 234.801L53.3308 244.432ZM81.5304 262.027C81.5304 262.01 81.5395 261.974 81.5571 261.921C81.5747 261.851 81.6368 261.816 81.7438 261.816C81.8508 261.816 82.0193 261.798 82.2509 261.763C82.482 261.728 82.7222 261.692 82.9709 261.657C83.2202 261.621 83.4512 261.586 83.6647 261.551C83.8781 261.498 84.0295 261.463 84.1183 261.445C85.1319 261.216 85.8348 260.845 86.2258 260.334C86.635 259.804 86.8394 259.152 86.8394 258.376V231.494C86.8394 230.612 86.6527 229.915 86.2793 229.403C85.9054 228.892 85.47 228.513 84.972 228.265C84.4916 228.001 84.0204 227.842 83.5582 227.79C83.1131 227.719 82.8109 227.684 82.651 227.684H81.6368C81.548 227.684 81.486 227.657 81.4501 227.605C81.4325 227.551 81.4239 227.507 81.4239 227.472V226.308C81.4239 226.272 81.4325 226.237 81.4501 226.202C81.4683 226.149 81.5304 226.114 81.6368 226.096C81.655 226.096 81.6903 226.096 81.7438 226.096C81.8149 226.096 81.9481 226.096 82.1439 226.096C82.3397 226.078 82.6243 226.07 82.9976 226.07C83.371 226.052 83.8957 226.034 84.5719 226.017C85.5502 225.999 86.5906 225.973 87.6931 225.937C88.8137 225.902 89.9429 225.867 91.0812 225.832C92.2195 225.796 93.3402 225.77 94.4426 225.752C95.5633 225.717 96.6128 225.699 97.5911 225.699H100.285C101.691 225.699 103.122 225.937 104.581 226.413C106.04 226.89 107.355 227.595 108.529 228.53C109.721 229.447 110.69 230.594 111.437 231.97C112.202 233.346 112.585 234.933 112.585 236.732C112.585 237.897 112.424 238.938 112.104 239.855C111.784 240.754 111.339 241.557 110.77 242.262C110.219 242.95 109.552 243.559 108.769 244.088C108.005 244.617 107.169 245.085 106.262 245.49L114.345 258.191C115.039 259.285 115.848 260.281 116.773 261.181C117.698 262.062 118.774 262.68 120.001 263.033C120.144 263.068 120.223 263.121 120.241 263.191C120.277 263.244 120.294 263.315 120.294 263.403C120.294 263.668 120.223 263.844 120.081 263.932C119.939 264.02 119.717 264.064 119.415 264.064C118.667 264.064 117.813 264.012 116.853 263.906C115.91 263.818 114.959 263.659 113.999 263.429C113.038 263.218 112.122 262.936 111.251 262.583C110.397 262.23 109.676 261.789 109.09 261.26C108.52 260.766 107.942 260.14 107.355 259.381C106.769 258.623 106.173 257.811 105.568 256.947C104.981 256.065 104.394 255.157 103.807 254.222C103.238 253.269 102.678 252.344 102.126 251.444C101.593 250.544 101.077 249.706 100.579 248.93C100.081 248.154 99.6275 247.493 99.2183 246.946L95.0567 246.655C95.0385 246.655 94.9674 246.655 94.8433 246.655C94.7186 246.655 94.6299 246.672 94.5764 246.707C94.5229 246.743 94.4876 246.778 94.4694 246.814C94.4517 246.849 94.4426 246.919 94.4426 247.025V258.297C94.4426 258.773 94.5052 259.188 94.6298 259.54C94.7539 259.893 94.9588 260.202 95.2434 260.466C95.5456 260.713 95.9281 260.916 96.3902 261.075C96.8706 261.234 97.4488 261.357 98.1244 261.445C98.2314 261.463 98.3822 261.489 98.578 261.524C98.7915 261.56 99.014 261.604 99.2451 261.657C99.4944 261.692 99.734 261.728 99.9656 261.763C100.197 261.798 100.392 261.816 100.552 261.816C100.659 261.816 100.721 261.842 100.739 261.895C100.757 261.948 100.766 261.992 100.766 262.027V263.191C100.766 263.227 100.748 263.271 100.712 263.324C100.695 263.377 100.641 263.403 100.552 263.403H81.7438C81.655 263.403 81.5924 263.28 81.5571 263.033C81.5395 262.786 81.5304 262.556 81.5304 262.345V262.027ZM94.4961 244.009C94.5143 244.15 94.5496 244.282 94.6031 244.406C94.6742 244.512 94.8074 244.573 95.0032 244.591C95.1631 244.609 95.4033 244.644 95.7232 244.697C96.0436 244.732 96.4881 244.75 97.0573 244.75C98.6224 244.75 99.9121 244.512 100.926 244.035C101.939 243.559 102.74 242.924 103.327 242.13C103.914 241.319 104.314 240.393 104.527 239.352C104.759 238.311 104.875 237.226 104.875 236.097C104.875 234.916 104.687 233.795 104.314 232.737C103.941 231.679 103.416 230.762 102.74 229.985C102.082 229.209 101.281 228.592 100.339 228.133C99.4141 227.675 98.3914 227.445 97.2707 227.445C97.022 227.445 96.8262 227.454 96.6839 227.472C96.5416 227.472 96.3993 227.481 96.257 227.498C96.1324 227.498 95.9816 227.507 95.8034 227.525C95.6435 227.525 95.4124 227.534 95.1096 227.551C95.0032 227.551 94.8609 227.578 94.6828 227.63C94.5229 227.666 94.4426 227.781 94.4426 227.975V243.215L94.4961 244.009ZM120.828 262.054C120.828 262.036 120.837 262.001 120.855 261.948C120.873 261.877 120.935 261.842 121.042 261.842H121.628C122.376 261.789 123.14 261.763 123.923 261.763C124.705 261.745 125.417 261.648 126.057 261.472C126.697 261.278 127.222 260.951 127.631 260.493C128.041 260.016 128.245 259.285 128.245 258.297V231.203C128.245 230.515 128.103 229.959 127.818 229.536C127.533 229.095 127.16 228.742 126.697 228.477C126.235 228.213 125.71 228.019 125.124 227.895C124.537 227.754 123.941 227.639 123.336 227.551H122.776C122.687 227.551 122.624 227.525 122.589 227.472C122.571 227.419 122.562 227.375 122.562 227.34V226.308C122.562 226.272 122.571 226.228 122.589 226.175C122.624 226.123 122.687 226.096 122.776 226.096H149.348C149.668 226.096 149.899 226.158 150.041 226.281C150.184 226.387 150.273 226.634 150.308 227.022L150.788 235.489C150.788 235.577 150.709 235.648 150.549 235.701C150.406 235.736 150.273 235.754 150.148 235.754C150.006 235.754 149.864 235.736 149.722 235.701C149.579 235.666 149.481 235.612 149.428 235.542C149.303 235.366 149.215 235.11 149.161 234.775C149.108 234.422 149.045 234.034 148.974 233.61C148.921 233.187 148.832 232.746 148.707 232.287C148.601 231.829 148.432 231.406 148.201 231.017C147.969 230.629 147.649 230.294 147.24 230.012C146.849 229.712 146.342 229.51 145.719 229.403H136.195C135.964 229.403 135.848 229.518 135.848 229.747V242.368C135.848 242.545 135.937 242.633 136.115 242.633H143.746C144.19 242.633 144.625 242.58 145.052 242.474C145.497 242.351 145.88 242.139 146.2 241.839C146.538 241.539 146.804 241.125 147 240.595C147.213 240.049 147.32 239.352 147.32 238.505C147.32 238.364 147.392 238.294 147.534 238.294H148.574C148.716 238.294 148.788 238.364 148.788 238.505V250.624C148.788 250.712 148.761 250.773 148.707 250.809C148.654 250.826 148.609 250.835 148.574 250.835H147.534C147.445 250.835 147.382 250.809 147.347 250.756C147.329 250.703 147.32 250.659 147.32 250.624C147.32 249.636 147.213 248.842 147 248.242C146.804 247.625 146.538 247.149 146.2 246.814C145.862 246.461 145.471 246.232 145.026 246.125C144.599 246.002 144.146 245.94 143.665 245.94H136.115C135.937 245.94 135.848 246.028 135.848 246.205V257.767C135.848 258.279 135.928 258.694 136.088 259.011C136.249 259.311 136.462 259.54 136.729 259.699C137.013 259.858 137.334 259.964 137.689 260.016C138.045 260.069 138.418 260.096 138.81 260.096H146.093C147.125 260.096 147.987 259.867 148.681 259.408C149.374 258.932 149.934 258.358 150.361 257.688C150.788 257.018 151.1 256.321 151.295 255.598C151.509 254.875 151.642 254.257 151.695 253.746C151.731 253.516 151.847 253.34 152.043 253.217C152.238 253.076 152.46 253.005 152.71 253.005C152.798 253.005 152.905 253.04 153.029 253.111C153.154 253.181 153.216 253.261 153.216 253.349L152.336 263.033C152.3 263.121 152.247 263.209 152.176 263.297C152.122 263.368 152.051 263.403 151.962 263.403H121.042C120.935 263.403 120.873 263.377 120.855 263.324C120.837 263.253 120.828 263.209 120.828 263.191V262.821V262.054ZM162.207 230.727C162.207 230.126 162.038 229.624 161.7 229.218C161.38 228.812 160.962 228.486 160.446 228.24C159.93 227.975 159.352 227.781 158.712 227.657C158.09 227.534 157.476 227.454 156.871 227.419C156.729 227.419 156.658 227.348 156.658 227.207V226.308C156.658 226.167 156.72 226.096 156.844 226.096H174.933C175.022 226.096 175.075 226.123 175.093 226.175C175.128 226.228 175.146 226.272 175.146 226.308V227.207C175.146 227.313 175.075 227.366 174.933 227.366C174.417 227.366 173.857 227.41 173.252 227.498C172.665 227.586 172.114 227.754 171.598 228.001C171.082 228.248 170.655 228.592 170.317 229.033C169.979 229.474 169.81 230.056 169.81 230.78V241.654C169.81 242.395 169.837 242.968 169.89 243.374C169.944 243.78 170.069 243.982 170.264 243.982C170.371 243.982 170.469 243.982 170.558 243.982C170.664 243.965 170.762 243.929 170.851 243.877C171.865 243.418 172.772 242.862 173.572 242.21C174.39 241.557 175.137 240.843 175.813 240.067C176.507 239.29 177.147 238.47 177.734 237.606C178.339 236.741 178.935 235.86 179.522 234.96C179.841 234.466 180.18 233.981 180.535 233.505C180.891 233.011 181.211 232.534 181.496 232.076C181.798 231.617 182.047 231.176 182.243 230.753C182.438 230.312 182.536 229.88 182.536 229.456C182.536 228.98 182.421 228.61 182.189 228.345C181.958 228.063 181.664 227.86 181.309 227.737C180.953 227.595 180.571 227.507 180.162 227.472C179.753 227.437 179.37 227.419 179.014 227.419H178.748C178.659 227.419 178.597 227.393 178.561 227.34C178.543 227.287 178.534 227.243 178.534 227.207V226.308C178.534 226.272 178.543 226.228 178.561 226.175C178.579 226.123 178.641 226.096 178.748 226.096H194.969C195.058 226.096 195.111 226.123 195.129 226.175C195.164 226.228 195.182 226.272 195.182 226.308V227.207C195.182 227.26 195.156 227.331 195.102 227.419C195.049 227.489 194.969 227.525 194.862 227.525C193.777 227.56 192.79 227.649 191.901 227.79C191.029 227.931 190.228 228.169 189.499 228.504C188.77 228.839 188.094 229.306 187.472 229.906C186.867 230.488 186.289 231.238 185.738 232.155C184.795 233.743 183.95 235.101 183.203 236.23C182.456 237.359 181.789 238.311 181.202 239.087C180.633 239.863 180.144 240.49 179.735 240.966C179.326 241.442 178.979 241.839 178.695 242.157C178.428 242.456 178.214 242.712 178.054 242.924C177.912 243.118 177.823 243.312 177.787 243.506C177.876 243.682 178.081 243.921 178.401 244.22C178.721 244.503 179.139 244.882 179.655 245.358C180.189 245.834 180.82 246.425 181.549 247.131C182.279 247.836 183.106 248.71 184.03 249.75C184.955 250.773 185.978 251.991 187.098 253.402C188.219 254.795 189.428 256.409 190.726 258.244C191.349 259.144 192.132 259.867 193.074 260.414C194.017 260.96 195.075 261.357 196.249 261.604C196.854 261.745 197.334 261.851 197.69 261.921C198.046 261.992 198.33 262.045 198.544 262.08C198.757 262.098 198.926 262.115 199.05 262.133C199.192 262.133 199.344 262.133 199.504 262.133C199.593 262.133 199.646 262.159 199.664 262.212C199.7 262.266 199.717 262.31 199.717 262.345V263.191C199.717 263.332 199.646 263.403 199.504 263.403H179.655C179.512 263.403 179.441 263.332 179.441 263.191V262.292C179.441 262.168 179.512 262.098 179.655 262.08C179.886 262.045 180.206 262.036 180.615 262.054C181.042 262.054 181.452 262.027 181.843 261.974C182.252 261.921 182.608 261.798 182.91 261.604C183.212 261.41 183.363 261.093 183.363 260.651C183.327 260.351 183.123 259.911 182.75 259.329C182.394 258.746 181.949 258.111 181.416 257.424C180.882 256.718 180.304 256.003 179.682 255.28C179.077 254.557 178.516 253.904 178.001 253.322C177.378 252.634 176.782 251.938 176.213 251.232C175.662 250.509 175.093 249.856 174.506 249.274C173.919 248.675 173.305 248.189 172.665 247.819C172.025 247.449 171.331 247.263 170.584 247.263H170.077C169.935 247.263 169.855 247.298 169.837 247.369C169.819 247.422 169.81 247.51 169.81 247.634V258.826C169.81 259.619 169.971 260.237 170.291 260.678C170.629 261.119 171.046 261.445 171.544 261.657C172.061 261.869 172.621 262.001 173.225 262.054C173.83 262.107 174.399 262.133 174.933 262.133C175.022 262.133 175.075 262.159 175.093 262.212C175.128 262.266 175.146 262.31 175.146 262.345V263.191C175.146 263.227 175.128 263.271 175.093 263.324C175.075 263.377 175.022 263.403 174.933 263.403H156.844C156.72 263.403 156.658 263.332 156.658 263.191V262.292C156.658 262.151 156.729 262.08 156.871 262.08C157.476 262.062 158.09 261.992 158.712 261.869C159.352 261.728 159.93 261.533 160.446 261.286C160.962 261.022 161.38 260.687 161.7 260.281C162.038 259.875 162.207 259.373 162.207 258.773V230.727ZM201.051 262.027C201.051 262.01 201.06 261.974 201.078 261.921C201.096 261.851 201.158 261.816 201.265 261.816C201.372 261.816 201.54 261.798 201.772 261.763C202.003 261.728 202.243 261.692 202.492 261.657C202.741 261.621 202.972 261.586 203.186 261.551C203.399 261.498 203.55 261.463 203.639 261.445C204.653 261.216 205.356 260.845 205.747 260.334C206.156 259.804 206.36 259.152 206.36 258.376V231.494C206.36 230.612 206.174 229.915 205.8 229.403C205.426 228.892 204.991 228.513 204.493 228.265C204.013 228.001 203.541 227.842 203.079 227.79C202.634 227.719 202.332 227.684 202.172 227.684H201.158C201.069 227.684 201.007 227.657 200.971 227.605C200.953 227.551 200.945 227.507 200.945 227.472V226.308C200.945 226.272 200.953 226.237 200.971 226.202C200.989 226.149 201.051 226.114 201.158 226.096C201.176 226.096 201.211 226.096 201.265 226.096C201.336 226.096 201.469 226.096 201.665 226.096C201.861 226.078 202.145 226.07 202.519 226.07C202.892 226.052 203.417 226.034 204.093 226.017C205.071 225.999 206.112 225.973 207.214 225.937C208.335 225.902 209.464 225.867 210.602 225.832C211.74 225.796 212.861 225.77 213.964 225.752C215.084 225.717 216.134 225.699 217.112 225.699H219.806C221.212 225.699 222.643 225.937 224.102 226.413C225.56 226.89 226.876 227.595 228.05 228.53C229.242 229.447 230.211 230.594 230.958 231.97C231.723 233.346 232.106 234.933 232.106 236.732C232.106 237.897 231.945 238.938 231.625 239.855C231.305 240.754 230.86 241.557 230.291 242.262C229.74 242.95 229.073 243.559 228.29 244.088C227.526 244.617 226.69 245.085 225.782 245.49L233.866 258.191C234.56 259.285 235.369 260.281 236.294 261.181C237.219 262.062 238.295 262.68 239.522 263.033C239.665 263.068 239.744 263.121 239.762 263.191C239.798 263.244 239.815 263.315 239.815 263.403C239.815 263.668 239.744 263.844 239.602 263.932C239.46 264.02 239.238 264.064 238.935 264.064C238.188 264.064 237.334 264.012 236.374 263.906C235.431 263.818 234.48 263.659 233.519 263.429C232.559 263.218 231.643 262.936 230.772 262.583C229.918 262.23 229.197 261.789 228.611 261.26C228.041 260.766 227.463 260.14 226.876 259.381C226.29 258.623 225.694 257.811 225.089 256.947C224.502 256.065 223.915 255.157 223.328 254.222C222.759 253.269 222.199 252.344 221.647 251.444C221.114 250.544 220.598 249.706 220.1 248.93C219.602 248.154 219.148 247.493 218.739 246.946L214.578 246.655C214.559 246.655 214.488 246.655 214.364 246.655C214.24 246.655 214.151 246.672 214.097 246.707C214.044 246.743 214.009 246.778 213.99 246.814C213.973 246.849 213.964 246.919 213.964 247.025V258.297C213.964 258.773 214.026 259.188 214.151 259.54C214.275 259.893 214.48 260.202 214.764 260.466C215.067 260.713 215.449 260.916 215.911 261.075C216.392 261.234 216.97 261.357 217.645 261.445C217.752 261.463 217.903 261.489 218.099 261.524C218.312 261.56 218.535 261.604 218.766 261.657C219.015 261.692 219.255 261.728 219.487 261.763C219.718 261.798 219.913 261.816 220.073 261.816C220.18 261.816 220.242 261.842 220.26 261.895C220.278 261.948 220.287 261.992 220.287 262.027V263.191C220.287 263.227 220.269 263.271 220.233 263.324C220.216 263.377 220.162 263.403 220.073 263.403H201.265C201.176 263.403 201.113 263.28 201.078 263.033C201.06 262.786 201.051 262.556 201.051 262.345V262.027ZM214.017 244.009C214.035 244.15 214.071 244.282 214.124 244.406C214.195 244.512 214.328 244.573 214.524 244.591C214.684 244.609 214.924 244.644 215.244 244.697C215.565 244.732 216.009 244.75 216.578 244.75C218.143 244.75 219.433 244.512 220.447 244.035C221.46 243.559 222.261 242.924 222.848 242.13C223.435 241.319 223.835 240.393 224.048 239.352C224.28 238.311 224.395 237.226 224.395 236.097C224.395 234.916 224.208 233.795 223.835 232.737C223.461 231.679 222.937 230.762 222.261 229.985C221.603 229.209 220.802 228.592 219.86 228.133C218.935 227.675 217.912 227.445 216.792 227.445C216.543 227.445 216.347 227.454 216.205 227.472C216.063 227.472 215.92 227.481 215.778 227.498C215.653 227.498 215.503 227.507 215.324 227.525C215.164 227.525 214.933 227.534 214.631 227.551C214.524 227.551 214.382 227.578 214.204 227.63C214.044 227.666 213.964 227.781 213.964 227.975V243.215L214.017 244.009ZM240.296 262.159C240.296 262.018 240.367 261.948 240.509 261.948C240.847 261.93 241.238 261.886 241.683 261.816C242.145 261.728 242.608 261.56 243.07 261.313C243.551 261.049 244.013 260.669 244.458 260.175C244.902 259.663 245.276 258.967 245.578 258.085L256.303 227.234C256.303 227.252 256.303 227.243 256.303 227.207C256.321 227.172 256.33 227.137 256.33 227.102C256.33 226.978 256.276 226.828 256.17 226.652C256.08 226.458 256.036 226.316 256.036 226.228C256.036 226.14 256.072 226.096 256.143 226.096H263.88C263.915 226.114 263.96 226.131 264.013 226.149C264.084 226.167 264.138 226.219 264.173 226.308L275.458 257.714C275.636 258.208 275.805 258.632 275.965 258.984C276.125 259.337 276.312 259.655 276.525 259.937C276.757 260.202 277.042 260.449 277.379 260.678C277.717 260.889 278.153 261.11 278.686 261.339C278.936 261.463 279.273 261.595 279.7 261.736C280.127 261.877 280.536 261.948 280.928 261.948C281.016 261.948 281.07 261.974 281.088 262.027C281.123 262.08 281.141 262.133 281.141 262.186V263.191C281.141 263.227 281.123 263.271 281.088 263.324C281.07 263.377 281.016 263.403 280.928 263.403H262.199C262.11 263.403 262.048 263.377 262.012 263.324C261.994 263.271 261.986 263.227 261.986 263.191V262.159C261.986 262.124 261.994 262.08 262.012 262.027C262.048 261.974 262.11 261.948 262.199 261.948C262.271 261.948 262.341 261.948 262.413 261.948C262.483 261.93 262.537 261.921 262.573 261.921C262.768 261.904 263.044 261.886 263.4 261.869C263.773 261.851 264.173 261.825 264.6 261.789C265.027 261.736 265.454 261.666 265.881 261.577C266.325 261.472 266.726 261.331 267.081 261.154C267.437 260.96 267.73 260.713 267.962 260.414C268.193 260.113 268.309 259.743 268.309 259.302C268.309 259.196 268.291 259.073 268.255 258.932L264.76 249.38C264.742 249.345 264.707 249.266 264.654 249.142C264.618 249.018 264.547 248.895 264.44 248.772C264.351 248.631 264.227 248.507 264.067 248.401C263.924 248.295 263.746 248.242 263.533 248.242H253.902C253.671 248.242 253.475 248.295 253.315 248.401C253.155 248.507 253.022 248.621 252.915 248.745C252.808 248.868 252.719 248.992 252.648 249.115C252.595 249.239 252.568 249.31 252.568 249.327C251.999 250.985 251.519 252.388 251.127 253.534C250.736 254.663 250.407 255.598 250.14 256.339C249.892 257.079 249.696 257.653 249.553 258.059C249.411 258.464 249.304 258.764 249.233 258.958C249.18 259.134 249.144 259.249 249.127 259.302C249.127 259.337 249.127 259.355 249.127 259.355C249.127 259.408 249.135 259.47 249.153 259.54C249.171 259.593 249.189 259.646 249.206 259.699C249.349 260.14 249.607 260.51 249.98 260.81C250.371 261.093 250.816 261.322 251.314 261.498C251.812 261.657 252.319 261.772 252.835 261.842C253.368 261.913 253.84 261.948 254.249 261.948H254.942C255.032 261.948 255.084 261.974 255.103 262.027C255.138 262.08 255.156 262.124 255.156 262.159V263.191C255.156 263.227 255.138 263.271 255.103 263.324C255.084 263.377 255.032 263.403 254.942 263.403H240.509C240.367 263.403 240.296 263.332 240.296 263.191V262.159ZM254.276 244.432C254.24 244.52 254.213 244.609 254.195 244.697C254.178 244.785 254.169 244.873 254.169 244.962C254.169 245.067 254.195 245.155 254.249 245.226C254.302 245.279 254.409 245.305 254.569 245.305H262.573C262.768 245.305 262.893 245.27 262.946 245.199C263.017 245.111 263.053 245.014 263.053 244.908C263.053 244.82 263.044 244.741 263.026 244.67C263.008 244.6 262.982 244.52 262.946 244.432L259.398 234.775C259.309 234.528 259.175 234.351 258.998 234.245C258.82 234.122 258.66 234.06 258.518 234.06C258.375 234.06 258.215 234.131 258.037 234.272C257.86 234.395 257.726 234.572 257.637 234.801L254.276 244.432ZM304.992 241.733C305.241 241.733 305.57 241.716 305.979 241.68C306.388 241.627 306.78 241.495 307.153 241.284C307.544 241.054 307.873 240.71 308.14 240.252C308.424 239.775 308.567 239.114 308.567 238.267C308.567 238.126 308.638 238.055 308.78 238.055H309.82C309.963 238.055 310.034 238.126 310.034 238.267V248.904C310.034 248.992 310.007 249.054 309.954 249.089C309.901 249.106 309.856 249.115 309.82 249.115H308.78C308.691 249.115 308.629 249.089 308.593 249.036C308.576 248.983 308.567 248.939 308.567 248.904C308.567 247.951 308.424 247.219 308.14 246.707C307.873 246.179 307.553 245.79 307.18 245.543C306.806 245.296 306.415 245.155 306.005 245.12C305.614 245.067 305.294 245.041 305.045 245.041H296.135C295.921 245.041 295.761 245.111 295.654 245.252C295.547 245.376 295.494 245.543 295.494 245.755V258.429C295.494 258.905 295.583 259.311 295.761 259.646C295.957 259.964 296.214 260.246 296.535 260.493C296.872 260.722 297.264 260.925 297.708 261.101C298.153 261.278 298.642 261.445 299.176 261.604C299.443 261.692 299.727 261.772 300.029 261.842C300.332 261.913 300.581 261.948 300.777 261.948C300.883 261.948 300.946 261.983 300.963 262.054C300.981 262.107 300.99 262.142 300.99 262.159V263.191C300.99 263.227 300.973 263.271 300.937 263.324C300.919 263.377 300.866 263.403 300.777 263.403H283.809C283.72 263.403 283.658 263.377 283.622 263.324C283.604 263.271 283.595 263.227 283.595 263.191V262.159C283.595 262.124 283.604 262.08 283.622 262.027C283.64 261.974 283.702 261.948 283.809 261.948C284.005 261.948 284.253 261.913 284.556 261.842C284.876 261.754 285.116 261.675 285.276 261.604C286.041 261.269 286.664 260.828 287.144 260.281C287.642 259.716 287.891 259.037 287.891 258.244V230.065C287.891 229.394 287.704 228.865 287.331 228.477C286.957 228.089 286.53 227.798 286.05 227.605C285.587 227.41 285.143 227.287 284.716 227.234C284.307 227.181 284.049 227.155 283.942 227.155H283.835C283.747 227.155 283.684 227.128 283.649 227.075C283.631 227.022 283.622 226.978 283.622 226.943V226.308C283.622 226.272 283.631 226.228 283.649 226.175C283.684 226.123 283.747 226.096 283.835 226.096H310.194C310.408 226.131 310.568 226.184 310.674 226.255C310.781 226.308 310.835 226.458 310.835 226.705V233.902C310.835 234.113 310.772 234.245 310.648 234.298C310.523 234.351 310.381 234.378 310.221 234.378H309.687C309.652 234.36 309.599 234.21 309.527 233.928C309.474 233.628 309.394 233.284 309.287 232.896C309.18 232.49 309.047 232.094 308.887 231.705C308.745 231.299 308.576 230.982 308.38 230.753C308.131 230.488 307.891 230.268 307.66 230.091C307.428 229.915 307.171 229.774 306.886 229.668C306.601 229.562 306.272 229.491 305.899 229.456C305.526 229.421 305.072 229.403 304.538 229.403H296.028C295.672 229.403 295.494 229.58 295.494 229.933V241.125C295.494 241.53 295.708 241.733 296.135 241.733H304.992ZM329.857 230.145C329.857 229.774 329.776 229.571 329.617 229.536C329.474 229.483 329.296 229.439 329.083 229.403H320.039C319.38 229.545 318.865 229.809 318.491 230.197C318.118 230.568 317.824 231.009 317.611 231.52C317.398 232.032 317.238 232.588 317.131 233.187C317.024 233.769 316.909 234.333 316.784 234.88C316.748 235.039 316.713 235.233 316.677 235.462C316.642 235.674 316.606 235.798 316.571 235.833C316.535 235.886 316.473 235.912 316.384 235.912H315.503C315.396 235.912 315.343 235.877 315.343 235.807V234.933L316.33 225.885C316.366 225.69 316.446 225.505 316.571 225.329C316.695 225.153 316.89 225.064 317.157 225.064C317.282 225.064 317.398 225.099 317.504 225.17C317.629 225.241 317.744 225.329 317.851 225.435C317.958 225.523 318.055 225.611 318.144 225.699C318.251 225.788 318.358 225.849 318.465 225.885C318.678 225.973 318.874 226.034 319.051 226.07C319.247 226.087 319.461 226.096 319.692 226.096H347.651C347.882 226.096 348.087 226.087 348.265 226.07C348.46 226.034 348.665 225.973 348.878 225.885C348.985 225.849 349.083 225.788 349.172 225.699C349.278 225.611 349.385 225.523 349.492 225.435C349.599 225.329 349.705 225.241 349.812 225.17C349.937 225.099 350.061 225.064 350.186 225.064C350.452 225.064 350.648 225.153 350.773 225.329C350.897 225.505 350.977 225.69 351.013 225.885L352 234.933V235.807C352 235.877 351.946 235.912 351.839 235.912H350.96C350.87 235.912 350.808 235.886 350.773 235.833C350.737 235.798 350.701 235.674 350.666 235.462C350.631 235.233 350.595 235.039 350.559 234.88C350.435 234.333 350.319 233.769 350.212 233.187C350.106 232.588 349.945 232.032 349.732 231.52C349.519 231.009 349.225 230.568 348.851 230.197C348.478 229.809 347.962 229.545 347.305 229.403H338.233C338.02 229.439 337.833 229.483 337.673 229.536C337.531 229.571 337.46 229.774 337.46 230.145V258.244C337.46 258.773 337.593 259.249 337.86 259.672C338.127 260.078 338.483 260.44 338.927 260.757C339.39 261.075 339.923 261.331 340.528 261.524C341.15 261.719 341.809 261.851 342.502 261.921C342.698 261.939 342.947 261.948 343.249 261.948C343.552 261.948 343.809 261.948 344.023 261.948C344.112 261.948 344.165 261.974 344.183 262.027C344.219 262.08 344.236 262.124 344.236 262.159V263.191C344.236 263.227 344.219 263.271 344.183 263.324C344.165 263.377 344.112 263.403 344.023 263.403H323.293C323.205 263.403 323.143 263.377 323.107 263.324C323.089 263.271 323.08 263.227 323.08 263.191V262.159C323.08 262.124 323.089 262.08 323.107 262.027C323.143 261.974 323.205 261.948 323.293 261.948C323.489 261.948 323.738 261.948 324.041 261.948C324.36 261.948 324.618 261.939 324.814 261.921C325.508 261.851 326.157 261.719 326.762 261.524C327.384 261.331 327.918 261.075 328.362 260.757C328.825 260.44 329.19 260.078 329.456 259.672C329.723 259.249 329.857 258.773 329.857 258.244V230.145Z" fill="#172C3F"/>
</svg>
