<svg width="125" height="114" viewBox="0 0 125 114" fill="none" xmlns="http://www.w3.org/2000/svg">
<path d="M46.0366 62.5C62.0366 67.7 57.3699 80.3333 53.0366 86C72.6366 79.6 74.5366 62 73.0366 54C70.6366 41.6 52.7033 31.5 44.0366 28C24.4366 20.4 16.2033 6.16667 14.5366 0C6.93664 18.4 29.37 34.3333 41.5366 40C35.5366 41.6 22.0366 32 16.0366 27C15.2366 41 35.7033 50.8333 46.0366 54C38.0366 54.8 30.0366 50.6666 27.0366 48.5C27.8366 55.7 40.0366 60.8333 46.0366 62.5Z" fill="white"/>
<path d="M48.5366 25.5C86.5366 41.5 79.37 66.5 71.0366 77C92.6366 63 87.7033 44.1666 82.5366 36.5C74.1366 26.9 76.7033 17.8333 79.0366 14.5C86.6366 6.5 91.5366 9.16667 93.0366 11.5C94.6366 0.300004 83.37 1.5 77.5366 3.5C73.9366 -0.899998 64.7033 2.33334 60.5366 4.5C54.1366 8.1 46.87 7 44.0366 6C44.0366 12.4 51.37 13.3333 55.0366 13C48.2366 21 47.87 24.6667 48.5366 25.5Z" fill="white"/>
<path d="M68 7.27515C69.3333 6.60848 72.3 5.47515 73.5 6.27515C73.1667 7.60848 71.6 9.67515 68 7.27515Z" fill="#172D44"/>
<path d="M14.2764 107.064C14.1833 107.072 14.0007 107.122 13.7285 107.215C13.4564 107.308 13.1556 107.354 12.8262 107.354C12.0742 107.354 11.4762 107.229 11.0322 106.979C10.5954 106.728 10.2552 106.398 10.0117 105.99C9.77539 105.575 9.58561 105.12 9.44238 104.626C9.30632 104.132 9.16667 103.641 9.02344 103.154C8.88021 102.66 8.68327 102.209 8.43262 101.801C8.18197 101.385 7.83105 101.052 7.37988 100.802C6.92871 100.551 6.31641 100.426 5.54297 100.426C5.3138 100.426 5.09538 100.433 4.8877 100.447C4.68717 100.462 4.57617 100.469 4.55469 100.469V105.485C4.55469 105.593 4.59049 105.697 4.66211 105.797C4.74089 105.897 4.85905 105.954 5.0166 105.969L6.17676 106.055V107H0.708984V106.055L1.84766 105.969C2.00521 105.954 2.12337 105.897 2.20215 105.797C2.28809 105.697 2.33105 105.593 2.33105 105.485V93.7549C2.33105 93.6475 2.28809 93.5436 2.20215 93.4434C2.12337 93.3359 2.00521 93.2786 1.84766 93.2715L0.708984 93.1855V92.2402H6.44531C8.11393 92.2402 9.42806 92.5303 10.3877 93.1104C11.3545 93.6833 11.8379 94.6966 11.8379 96.1504C11.8379 96.9167 11.666 97.5469 11.3223 98.041C10.9785 98.528 10.5309 98.9111 9.97949 99.1904C9.43522 99.4697 8.85156 99.681 8.22852 99.8242C8.90885 99.9889 9.4388 100.225 9.81836 100.533C10.2051 100.834 10.4915 101.178 10.6777 101.564C10.8639 101.951 11.0036 102.352 11.0967 102.768C11.1898 103.183 11.2829 103.588 11.376 103.981C11.4691 104.375 11.6087 104.73 11.7949 105.045C11.9883 105.36 12.2783 105.611 12.665 105.797C13.0518 105.983 13.5889 106.076 14.2764 106.076V107.064ZM9.44238 96.2471C9.44238 95.3089 9.1416 94.5856 8.54004 94.0771C7.94564 93.5687 6.95378 93.3145 5.56445 93.3145H4.55469V99.3408C4.59049 99.3408 4.7373 99.3444 4.99512 99.3516C5.26009 99.3587 5.47852 99.3623 5.65039 99.3623C6.875 99.3623 7.81315 99.1367 8.46484 98.6855C9.11654 98.2344 9.44238 97.4215 9.44238 96.2471ZM29.0039 107H23.7725V106.055L25.04 105.947C25.0973 105.947 25.151 105.911 25.2012 105.84C25.2513 105.761 25.2764 105.689 25.2764 105.625C25.2764 105.596 25.2728 105.578 25.2656 105.571L23.751 101.543H18.6699L17.209 105.507C17.2018 105.521 17.1982 105.543 17.1982 105.571C17.1982 105.657 17.234 105.743 17.3057 105.829C17.3844 105.908 17.4561 105.947 17.5205 105.947L18.8203 106.055V107H14.3945V106.055L15.6729 105.786L20.7969 91.8857H22.4512L27.5537 105.464C27.611 105.614 27.6611 105.715 27.7041 105.765C27.7471 105.815 27.8509 105.854 28.0156 105.883L29.0039 106.055V107ZM23.3535 100.49L21.1943 94.7217L19.0566 100.49H23.3535ZM43.3877 107.064C43.2946 107.072 43.112 107.122 42.8398 107.215C42.5677 107.308 42.2669 107.354 41.9375 107.354C41.1855 107.354 40.5876 107.229 40.1436 106.979C39.7067 106.728 39.3665 106.398 39.123 105.99C38.8867 105.575 38.6969 105.12 38.5537 104.626C38.4176 104.132 38.278 103.641 38.1348 103.154C37.9915 102.66 37.7946 102.209 37.5439 101.801C37.2933 101.385 36.9424 101.052 36.4912 100.802C36.04 100.551 35.4277 100.426 34.6543 100.426C34.4251 100.426 34.2067 100.433 33.999 100.447C33.7985 100.462 33.6875 100.469 33.666 100.469V105.485C33.666 105.593 33.7018 105.697 33.7734 105.797C33.8522 105.897 33.9704 105.954 34.1279 105.969L35.2881 106.055V107H29.8203V106.055L30.959 105.969C31.1165 105.954 31.2347 105.897 31.3135 105.797C31.3994 105.697 31.4424 105.593 31.4424 105.485V93.7549C31.4424 93.6475 31.3994 93.5436 31.3135 93.4434C31.2347 93.3359 31.1165 93.2786 30.959 93.2715L29.8203 93.1855V92.2402H35.5566C37.2253 92.2402 38.5394 92.5303 39.499 93.1104C40.4658 93.6833 40.9492 94.6966 40.9492 96.1504C40.9492 96.9167 40.7773 97.5469 40.4336 98.041C40.0898 98.528 39.6423 98.9111 39.0908 99.1904C38.5465 99.4697 37.9629 99.681 37.3398 99.8242C38.0202 99.9889 38.5501 100.225 38.9297 100.533C39.3164 100.834 39.6029 101.178 39.7891 101.564C39.9753 101.951 40.1149 102.352 40.208 102.768C40.3011 103.183 40.3942 103.588 40.4873 103.981C40.5804 104.375 40.7201 104.73 40.9062 105.045C41.0996 105.36 41.3896 105.611 41.7764 105.797C42.1631 105.983 42.7002 106.076 43.3877 106.076V107.064ZM38.5537 96.2471C38.5537 95.3089 38.2529 94.5856 37.6514 94.0771C37.057 93.5687 36.0651 93.3145 34.6758 93.3145H33.666V99.3408C33.7018 99.3408 33.8486 99.3444 34.1064 99.3516C34.3714 99.3587 34.5898 99.3623 34.7617 99.3623C35.9863 99.3623 36.9245 99.1367 37.5762 98.6855C38.2279 98.2344 38.5537 97.4215 38.5537 96.2471ZM55.5156 107H44.1074V106.055L45.2461 105.969C45.4036 105.954 45.5218 105.897 45.6006 105.797C45.6865 105.697 45.7295 105.593 45.7295 105.485V93.7549C45.7295 93.6475 45.6865 93.5436 45.6006 93.4434C45.5218 93.3359 45.4036 93.2786 45.2461 93.2715L44.1074 93.1855V92.2402H54.7959V95.5166H53.4746L53.1416 93.7119C53.1344 93.6045 53.0915 93.5078 53.0127 93.4219C52.9339 93.3359 52.8444 93.293 52.7441 93.293H47.9746V98.7715H51.2725C51.3727 98.7715 51.4622 98.7285 51.541 98.6426C51.627 98.5566 51.6699 98.4743 51.6699 98.3955L51.8955 96.8809H53.0127V101.79H51.8955L51.6699 100.265C51.6699 100.186 51.627 100.1 51.541 100.007C51.4551 99.9137 51.3656 99.8672 51.2725 99.8672H47.9746V105.926H53.5391C53.6322 105.926 53.7181 105.876 53.7969 105.775C53.8828 105.668 53.9294 105.578 53.9365 105.507L54.334 103.326H55.5156V107ZM70.2646 107H66.4082V106.323L62.3154 100.447H60.7793V105.485C60.7793 105.593 60.8187 105.697 60.8975 105.797C60.9834 105.897 61.1051 105.954 61.2627 105.969L62.5195 106.055V107H56.9336V106.055L58.0938 105.969C58.2513 105.954 58.3659 105.897 58.4375 105.797C58.5163 105.697 58.5557 105.593 58.5557 105.485V93.7549C58.5557 93.6475 58.5163 93.5436 58.4375 93.4434C58.3659 93.3359 58.2513 93.2786 58.0938 93.2715L56.9336 93.1855V92.2402H62.5195V93.1855L61.2627 93.2715C61.1051 93.2786 60.9834 93.3359 60.8975 93.4434C60.8187 93.5436 60.7793 93.6475 60.7793 93.7549V99.5234H61.5742L66.3652 93.6689C66.3939 93.6403 66.4082 93.6009 66.4082 93.5508C66.4082 93.3932 66.3366 93.3073 66.1934 93.293L65.0654 93.1855V92.2402H69.7275V93.1855C69.7275 93.1855 69.6094 93.1999 69.373 93.2285C69.1439 93.25 68.9076 93.2751 68.6641 93.3037C68.4206 93.3324 68.2773 93.3503 68.2344 93.3574L63.7441 98.7285L68.6748 105.947L70.2646 106.055V107ZM84.5518 107.064C84.4587 107.072 84.276 107.122 84.0039 107.215C83.7318 107.308 83.431 107.354 83.1016 107.354C82.3496 107.354 81.7516 107.229 81.3076 106.979C80.8708 106.728 80.5306 106.398 80.2871 105.99C80.0508 105.575 79.861 105.12 79.7178 104.626C79.5817 104.132 79.4421 103.641 79.2988 103.154C79.1556 102.66 78.9587 102.209 78.708 101.801C78.4574 101.385 78.1064 101.052 77.6553 100.802C77.2041 100.551 76.5918 100.426 75.8184 100.426C75.5892 100.426 75.3708 100.433 75.1631 100.447C74.9626 100.462 74.8516 100.469 74.8301 100.469V105.485C74.8301 105.593 74.8659 105.697 74.9375 105.797C75.0163 105.897 75.1344 105.954 75.292 105.969L76.4521 106.055V107H70.9844V106.055L72.123 105.969C72.2806 105.954 72.3988 105.897 72.4775 105.797C72.5635 105.697 72.6064 105.593 72.6064 105.485V93.7549C72.6064 93.6475 72.5635 93.5436 72.4775 93.4434C72.3988 93.3359 72.2806 93.2786 72.123 93.2715L70.9844 93.1855V92.2402H76.7207C78.3893 92.2402 79.7035 92.5303 80.6631 93.1104C81.6299 93.6833 82.1133 94.6966 82.1133 96.1504C82.1133 96.9167 81.9414 97.5469 81.5977 98.041C81.2539 98.528 80.8063 98.9111 80.2549 99.1904C79.7106 99.4697 79.127 99.681 78.5039 99.8242C79.1842 99.9889 79.7142 100.225 80.0938 100.533C80.4805 100.834 80.7669 101.178 80.9531 101.564C81.1393 101.951 81.279 102.352 81.3721 102.768C81.4652 103.183 81.5583 103.588 81.6514 103.981C81.7445 104.375 81.8841 104.73 82.0703 105.045C82.2637 105.36 82.5537 105.611 82.9404 105.797C83.3271 105.983 83.8643 106.076 84.5518 106.076V107.064ZM79.7178 96.2471C79.7178 95.3089 79.417 94.5856 78.8154 94.0771C78.221 93.5687 77.2292 93.3145 75.8398 93.3145H74.8301V99.3408C74.8659 99.3408 75.0127 99.3444 75.2705 99.3516C75.5355 99.3587 75.7539 99.3623 75.9258 99.3623C77.1504 99.3623 78.0885 99.1367 78.7402 98.6855C79.3919 98.2344 79.7178 97.4215 79.7178 96.2471ZM99.2793 107H94.0479V106.055L95.3154 105.947C95.3727 105.947 95.4264 105.911 95.4766 105.84C95.5267 105.761 95.5518 105.689 95.5518 105.625C95.5518 105.596 95.5482 105.578 95.541 105.571L94.0264 101.543H88.9453L87.4844 105.507C87.4772 105.521 87.4736 105.543 87.4736 105.571C87.4736 105.657 87.5094 105.743 87.5811 105.829C87.6598 105.908 87.7314 105.947 87.7959 105.947L89.0957 106.055V107H84.6699V106.055L85.9482 105.786L91.0723 91.8857H92.7266L97.8291 105.464C97.8864 105.614 97.9365 105.715 97.9795 105.765C98.0225 105.815 98.1263 105.854 98.291 105.883L99.2793 106.055V107ZM93.6289 100.49L91.4697 94.7217L89.332 100.49H93.6289ZM110.634 95.7314H109.334L109.022 93.7119C109.001 93.6045 108.958 93.5114 108.894 93.4326C108.829 93.3538 108.747 93.3145 108.646 93.3145H103.963V99.04H107.325C107.425 99.04 107.515 98.9935 107.594 98.9004C107.673 98.8001 107.715 98.7142 107.723 98.6426L107.927 97.0957H109.022V102.048H107.927L107.723 100.512C107.715 100.433 107.669 100.347 107.583 100.254C107.504 100.161 107.418 100.114 107.325 100.114H103.963V105.485C103.963 105.593 103.999 105.697 104.07 105.797C104.149 105.897 104.267 105.954 104.425 105.969L105.896 106.055V107H100.117V106.055L101.277 105.969C101.435 105.954 101.549 105.897 101.621 105.797C101.7 105.697 101.739 105.593 101.739 105.485V93.7549C101.739 93.6475 101.7 93.5436 101.621 93.4434C101.549 93.3359 101.435 93.2786 101.277 93.2715L99.9346 93.1855V92.2402H110.634V95.7314ZM124.115 95.7529H122.815L122.504 93.6904C122.454 93.4398 122.332 93.3145 122.139 93.3145H118.991V105.485C118.991 105.593 119.027 105.697 119.099 105.797C119.177 105.897 119.296 105.954 119.453 105.969L120.86 106.055V107H114.898V106.055L116.306 105.969C116.463 105.954 116.578 105.897 116.649 105.797C116.728 105.697 116.768 105.593 116.768 105.485V93.3145H113.599C113.384 93.3145 113.258 93.4398 113.223 93.6904L112.922 95.7529H111.644V92.2402H124.115V95.7529Z" fill="white"/>
</svg>
